<svg version="1.1" id="Слой_1" xmlns="http://www.w3.org/2000/svg" x="0" y="0" viewBox="0 0 16 16" xml:space="preserve"><style>.st0{enable-background:new}</style><path d="M6 3h8v2H6zM6 7h8v2H6zM6 11h8v2H6zM3.028 4.973v-1.73c-.112.066-.24.125-.384.177s-.266.092-.366.123l-.24-.51c.096-.03.2-.068.312-.115.112-.047.224-.098.336-.156.112-.056.218-.116.318-.18s.186-.128.258-.195h.504v2.586h.738v.51H2.248v-.51h.78zM4.354 7.202a.693.693 0 0 1-.072.307c-.048.1-.112.195-.192.288s-.17.184-.27.27c-.1.087-.202.17-.306.25-.052.04-.112.087-.18.143s-.132.111-.192.17c-.06.058-.111.117-.153.177a.294.294 0 0 0-.063.165h1.596v.51H2.098c-.012-.034-.017-.076-.015-.125l.003-.105c0-.166.037-.32.11-.46.075-.14.17-.269.283-.387.114-.119.236-.229.366-.33.13-.102.252-.2.366-.293.114-.093.208-.183.282-.27a.407.407 0 0 0 .111-.265.342.342 0 0 0-.138-.292.567.567 0 0 0-.348-.103c-.116 0-.238.024-.366.07a1.195 1.195 0 0 0-.378.235l-.366-.43c.16-.14.345-.243.555-.31s.419-.1.627-.1c.152 0 .298.019.438.055s.264.092.372.165.194.166.258.278.096.24.096.387zM3.028 13.547c-.092 0-.19-.006-.291-.018s-.2-.025-.294-.041a4.165 4.165 0 0 1-.26-.055c-.081-.02-.143-.04-.187-.056l.144-.514c.092.033.211.068.357.104.146.037.32.056.525.056.252 0 .43-.045.531-.136a.43.43 0 0 0 .153-.335c0-.163-.078-.277-.234-.342a1.549 1.549 0 0 0-.594-.098H2.65v-.51h.276c.076 0 .152-.006.228-.02a.742.742 0 0 0 .204-.064c.06-.03.109-.07.147-.12s.057-.114.057-.19a.323.323 0 0 0-.123-.268.535.535 0 0 0-.339-.098c-.14 0-.28.02-.417.058-.138.039-.257.086-.357.142l-.264-.45a2.8 2.8 0 0 1 .43-.182c.177-.062.378-.092.602-.092.208 0 .389.021.543.064.154.044.281.105.381.183s.174.17.222.277a.837.837 0 0 1 .072.346c0 .123-.042.24-.126.354s-.196.2-.336.26a.97.97 0 0 1 .447.296c.106.13.16.284.16.465a.928.928 0 0 1-.085.394.832.832 0 0 1-.258.313 1.247 1.247 0 0 1-.444.205c-.18.049-.394.072-.642.072z"/></svg>