<svg xmlns="http://www.w3.org/2000/svg" viewBox="0 0 16 16"><path d="M7.915 4.458v8.046h-1.6V8.956h-2.13v3.548h-1.6V4.458h1.6V7.63h2.13V4.458h1.6zm3.354 8.215c-.2 0-.41-.015-.63-.045s-.434-.067-.637-.11a7.582 7.582 0 0 1-.566-.144 3.416 3.416 0 0 1-.403-.142l.313-1.34c.198.087.456.179.772.273.317.096.696.144 1.138.144.546 0 .93-.117 1.15-.352.222-.233.332-.524.332-.87 0-.426-.169-.723-.507-.891-.338-.169-.767-.253-1.287-.253h-.494V7.616h.598c.165 0 .329-.017.494-.051.164-.035.312-.091.442-.17a.962.962 0 0 0 .319-.311.91.91 0 0 0 .123-.494c0-.295-.09-.527-.267-.696s-.422-.253-.734-.253c-.304 0-.605.05-.904.15s-.556.222-.773.37l-.572-1.17c.234-.156.544-.315.93-.475a3.37 3.37 0 0 1 1.306-.24 3.7 3.7 0 0 1 1.177.169c.333.112.608.27.825.474s.377.444.48.722c.105.277.157.576.157.897 0 .32-.091.628-.273.923a1.82 1.82 0 0 1-.728.675c.416.174.74.43.969.768s.344.74.344 1.209c0 .373-.06.714-.182 1.026a2.132 2.132 0 0 1-.559.812 2.56 2.56 0 0 1-.962.534c-.39.126-.853.188-1.391.188z"/></svg>