<svg xmlns="http://www.w3.org/2000/svg" viewBox="0 0 16 16"><path d="M12.575 7h-9.15C2.638 7 2 7.638 2 8.425v5.15C2 14.362 2.638 15 3.425 15h9.15c.787 0 1.425-.638 1.425-1.425v-5.15C14 7.638 13.362 7 12.575 7zM13 14H3V8h10v6z"/><path d="M6 10V9H4v1h.5v2H4v1h2v-1h-.5v-2H6zm-.128-4L5.64 4.856H4.32L4.096 6H3.072a50.84 50.84 0 0 1 .712-2.668c.24-.803.472-1.564.696-2.284h1.072c.235.725.468 1.495.7 2.308.232.813.457 1.694.676 2.644H5.872zm-.88-3.992a30.19 30.19 0 0 0-.276 1.028 14.666 14.666 0 0 0-.212 1.004h.968a45.668 45.668 0 0 0-.096-.512c-.032-.165-.068-.33-.108-.492a26.726 26.726 0 0 0-.276-1.028zm3.928.136c.31 0 .566.036.772.108.205.072.37.173.492.304.123.13.21.29.264.48.053.19.08.401.08.636v2.24a9.72 9.72 0 0 1-.64.112c-.283.042-.6.064-.952.064-.24 0-.457-.022-.652-.064-.195-.043-.361-.114-.5-.212s-.245-.227-.32-.384a1.356 1.356 0 0 1-.112-.58 1.1 1.1 0 0 1 .128-.552c.085-.15.2-.27.344-.36.144-.091.309-.157.496-.196.187-.04.381-.06.584-.06.256 0 .483.02.68.064v-.12a.66.66 0 0 0-.176-.469c-.117-.125-.32-.188-.608-.188-.187 0-.366.014-.54.04a2.47 2.47 0 0 0-.42.097l-.136-.792c.122-.043.296-.081.52-.116.224-.035.456-.052.696-.052zm.088 3.152c.106 0 .21-.001.312-.004.1-.003.189-.01.264-.02v-.864a3.24 3.24 0 0 0-.48-.04c-.101 0-.2.006-.296.02a.929.929 0 0 0-.252.068.42.42 0 0 0-.172.136.385.385 0 0 0-.064.232c0 .17.064.292.192.364s.294.108.496.108z"/></svg>